<svg width="74" height="36" viewBox="0 0 74 36" fill="none" xmlns="http://www.w3.org/2000/svg">
<g clip-path="url(#clip0_4538_6594)">
<rect width="74" height="36" rx="18" fill="#F2F2F2"/>
<path d="M12.4521 11.5684H13.9014L15.9932 18.3496C16.0661 18.6139 16.1755 18.9922 16.3213 19.4844C16.4762 19.9766 16.5902 20.3639 16.6631 20.6465L16.7178 20.6602C16.7998 20.3776 16.9092 19.9948 17.0459 19.5117C17.1826 19.0195 17.292 18.6322 17.374 18.3496L19.4795 11.5684H20.9424L17.4834 22H15.9111L12.4521 11.5684ZM22.0498 12.9766V11.418H23.5674V12.9766H22.0498ZM22.1865 22V14.4668H23.4443V22H22.1865ZM25.2764 18.1855C25.2764 17.0007 25.5999 16.0436 26.2471 15.3145C26.8942 14.5853 27.7236 14.2207 28.7354 14.2207C29.7471 14.2207 30.5537 14.5807 31.1553 15.3008C31.766 16.0208 32.0713 16.9414 32.0713 18.0625C32.0713 18.2083 32.0622 18.4089 32.0439 18.6641H26.5752C26.5752 19.3568 26.7712 19.9538 27.1631 20.4551C27.5641 20.9473 28.111 21.1934 28.8037 21.1934C29.7334 21.1934 30.4124 20.7923 30.8408 19.9902L31.9209 20.332C31.6839 20.888 31.2965 21.3483 30.7588 21.7129C30.2301 22.0684 29.5739 22.2461 28.79 22.2461C27.7419 22.2461 26.8942 21.877 26.2471 21.1387C25.5999 20.3913 25.2764 19.4069 25.2764 18.1855ZM26.6025 17.7207H30.7725C30.7725 17.0371 30.5902 16.4583 30.2256 15.9844C29.861 15.5104 29.3643 15.2734 28.7354 15.2734C28.0973 15.2734 27.5869 15.5195 27.2041 16.0117C26.8213 16.4948 26.6208 17.0645 26.6025 17.7207ZM32.8232 14.4668H34.2314L35.2295 18.8281C35.2751 19.0286 35.3389 19.3431 35.4209 19.7715C35.5029 20.1999 35.5713 20.5417 35.626 20.7969H35.6807C35.8903 19.8307 36.0316 19.1745 36.1045 18.8281L37.1299 14.4668H38.5791L39.6182 18.8828C39.6546 19.0469 39.7184 19.3431 39.8096 19.7715C39.9098 20.1908 39.9873 20.5326 40.042 20.7969H40.0967C40.124 20.651 40.1833 20.3503 40.2744 19.8945C40.3656 19.4297 40.4385 19.0742 40.4932 18.8281L41.4775 14.4668H42.8857L40.8213 22H39.3037L38.2783 17.7617C38.0687 16.7865 37.9365 16.1439 37.8818 15.834H37.8271C37.6722 16.627 37.54 17.2695 37.4307 17.7617L36.4189 22H34.8877L32.8232 14.4668ZM48.2314 20.0039C48.2314 20.332 48.3682 20.61 48.6416 20.8379C48.915 21.0658 49.2842 21.1797 49.749 21.1797C50.3688 21.1797 50.8929 20.9792 51.3213 20.5781C51.7588 20.1771 51.9775 19.6621 51.9775 19.0332V18.1035C51.613 18.1947 51.0205 18.304 50.2002 18.4316C48.8877 18.6504 48.2314 19.1745 48.2314 20.0039ZM46.9463 20.1133C46.9463 18.7005 48.0173 17.8301 50.1592 17.502C51.0889 17.3561 51.695 17.2376 51.9775 17.1465V16.7227C51.9775 16.2852 51.8226 15.9297 51.5127 15.6562C51.2119 15.3828 50.7835 15.2461 50.2275 15.2461C49.79 15.2461 49.3662 15.3509 48.9561 15.5605C48.555 15.7611 48.2178 16.0299 47.9443 16.3672L47.1377 15.6836C47.5114 15.237 47.9671 14.8815 48.5049 14.6172C49.0426 14.3529 49.6077 14.2207 50.2002 14.2207C52.2327 14.2207 53.249 15.2233 53.249 17.2285V22H52.0186V20.8652C51.8636 21.2389 51.5674 21.5625 51.1299 21.8359C50.6924 22.1094 50.1774 22.2461 49.585 22.2461C48.7555 22.2461 48.1084 22.0501 47.6436 21.6582C47.1787 21.2572 46.9463 20.7422 46.9463 20.1133ZM55.4092 22V11.1992H56.6807V22H55.4092ZM59.0732 22V11.1992H60.3447V22H59.0732Z" fill="#0F0F0F"/>
</g>
<defs>
<clipPath id="clip0_4538_6594">
<rect width="74" height="36" fill="white"/>
</clipPath>
</defs>
</svg>
